{
  "accessors": [
    {
      "bufferView": 0,
      "componentType": 5126,
      "count": 470784,
      "max": [
        6.400000095367432,
        8.899999618530273,
        6.025772571563721
      ],
      "min": [
        -20.5,
        -9.600000381469727,
        -29.664243698120117
      ],
      "name": "positions",
      "type": "VEC3"
    },
    {
      "bufferView": 1,
      "componentType": 5126,
      "count": 470784,
      "max": [
        0.998771071434021,
        0.9978355169296265
      ],
      "min": [
        6.103515625e-05,
        0.0001220703125
      ],
      "name": "texCoords",
      "type": "VEC2"
    },
    {
      "bufferView": 2,
      "componentType": 5125,
      "count": 470784,
      "max": [
        470783
      ],
      "min": [
        0
      ],
      "name": "indices",
      "type": "SCALAR"
    }
  ],
  "asset": {
    "version": "2.0"
  },
  "bufferViews": [
    {
      "buffer": 0,
      "byteLength": 5649408,
      "name": "positions",
      "target": 34962
    },
    {
      "buffer": 0,
      "byteLength": 3766272,
      "byteOffset": 5649408,
      "name": "texCoords",
      "target": 34962
    },
    {
      "buffer": 0,
      "byteLength": 1883136,
      "byteOffset": 9415680,
      "name": "indices",
      "target": 34963
    }
  ],
  "buffers": [
    {
      "byteLength": 11298816,
      "uri": "jin.bin"
    }
  ],
  "images": [
    {
      "name": "jin_BaseColor",
      "uri": "direct-jin_BaseColor.png"
    }
  ],
  "materials": [
    {
      "doubleSided": true,
      "name": "jin_mtl",
      "pbrMetallicRoughness": {
        "baseColorTexture": {
          "index": 0
        }
      }
    }
  ],
  "meshes": [
    {
      "primitives": [
        {
          "attributes": {
            "POSITION": 0,
            "TEXCOORD_0": 1
          },
          "indices": 2,
          "material": 0,
          "mode": 4
        }
      ]
    }
  ],
  "nodes": [
    {
      "children": [
        1,
        2
      ],
      "name": "jin"
    },
    {
      "matrix": [
        1.0,
        0.0,
        0.0,
        0.0,
        0.0,
        0.00034527882846813185,
        -0.9999999403912635,
        0.0,
        0.0,
        0.9999999403912635,
        0.00034527882846813185,
        0.0,
        7.050000190734863,
        11.819355010986328,
        -0.34591928124427795,
        1.0
      ],
      "mesh": 0,
      "name": "MeshTransform"
    },
    {
      "name": "material"
    }
  ],
  "samplers": [
    {
      "magFilter": 9729,
      "minFilter": 9729,
      "wrapS": 10497,
      "wrapT": 10497
    }
  ],
  "scenes": [
    {
      "nodes": [
        0
      ]
    }
  ],
  "textures": [
    {
      "sampler": 0,
      "source": 0
    }
  ]
}
